<svg width="42.007mm" height="42.007mm" version="1.1" viewBox="0 0 42.007 42.007" xmlns="http://www.w3.org/2000/svg" xmlns:xlink="http://www.w3.org/1999/xlink">
 <g transform="translate(-1.6712 -2.1673)">
  <g transform="translate(-.4258 -45.621)" stroke-linejoin="round" stroke-width="1.3229">
   <path d="m26.408 68.13a10.025 10.025 0 0 0 7.3267-9.6666 10.025 10.025 0 0 0-10.031-10.014 10.025 10.025 0 0 0-8.7256 5.1087 13.736 13.736 0 0 1 11.481 13.519 13.736 13.736 0 0 1-0.0517 1.0532z" fill="#8bc34a" stroke="#8bc34a" style="paint-order:fill markers stroke"/>
   <path d="m23.762 72.099a10.025 10.025 0 0 0 9.6666 7.3267 10.025 10.025 0 0 0 10.014-10.031 10.025 10.025 0 0 0-5.1087-8.7256 13.736 13.736 0 0 1-13.519 11.481 13.736 13.736 0 0 1-1.0532-0.0517z" fill="#29b6f6" stroke="#29b6f6" style="paint-order:stroke fill markers"/>
   <path d="m19.793 69.453a10.025 10.025 0 0 0-7.3267 9.6666 10.025 10.025 0 0 0 10.031 10.014 10.025 10.025 0 0 0 8.7255-5.1088 13.736 13.736 0 0 1-11.481-13.519 13.736 13.736 0 0 1 0.0517-1.0532z" fill="#f6905e" stroke="#f6905e" style="paint-order:fill markers stroke"/>
   <path d="m22.439 65.484a10.025 10.025 0 0 0-9.6666-7.3267 10.025 10.025 0 0 0-10.014 10.031 10.025 10.025 0 0 0 5.1087 8.7256 13.736 13.736 0 0 1 13.519-11.481 13.736 13.736 0 0 1 1.0532 0.0517z" fill="#c34a8b" stroke="#c34a8b" style="paint-order:fill markers stroke"/>
  </g>
 </g>
</svg>
