<svg width="101.11mm" height="42.007mm" version="1.1" viewBox="0 0 101.11 42.007" xmlns="http://www.w3.org/2000/svg" xmlns:xlink="http://www.w3.org/1999/xlink">
 <g transform="translate(-2.128 -1.6713)">
  <text x="239.42479" y="81.95816" fill="#000000" font-family="sans-serif" font-size="10.583px" letter-spacing="0px" word-spacing="0px" style="line-height:1.25" xml:space="preserve"/>
  <g fill="#354a59">
   <path d="m50.772 28.661q-1.8239 0-1.8239-1.7074v-8.7313q0-1.7074 1.8239-1.7074h2.1537q1.8045 0 1.8045 1.7074v8.7313q0 1.3194-1.0866 1.6298l1.3776 1.8433h-1.8627l-1.2806-1.7657zm-0.05821-10.167v8.188q0 0.34926 0.097 0.46567 0.11641 0.097 0.46566 0.097h1.1254q0.34925 0 0.46566-0.097 0.11642-0.11641 0.11642-0.46567v-8.188q0-0.34925-0.11642-0.44626-0.11641-0.11642-0.46566-0.11642h-1.1254q-0.34925 0-0.46566 0.11642-0.097 0.09701-0.097 0.44626z" style="font-variant-caps:normal;font-variant-east-asian:normal;font-variant-ligatures:normal;font-variant-numeric:normal;font-variant-position:normal;font-variation-settings:'wght' 700"/>
   <path d="m60.648 16.515h1.7656v10.439q0 1.7074-1.8239 1.7074h-2.1537q-1.8239 0-1.8239-1.7074v-10.439h1.7656v10.167q0 0.34926 0.11642 0.46567 0.11642 0.097 0.46567 0.097h1.106q0.36865 0 0.46566-0.097 0.11642-0.11641 0.11642-0.46567z" style="font-variant-caps:normal;font-variant-east-asian:normal;font-variant-ligatures:normal;font-variant-numeric:normal;font-variant-position:normal;font-variation-settings:'wght' 700"/>
   <path d="m64.528 16.515h1.7462v12.146h-1.7462z" style="font-variant-caps:normal;font-variant-east-asian:normal;font-variant-ligatures:normal;font-variant-numeric:normal;font-variant-position:normal;font-variation-settings:'wght' 700"/>
   <path d="m74.036 20.318h-1.7851v-1.8627q0-0.34925-0.11641-0.44626-0.097-0.11642-0.44627-0.11642h-0.98954q-0.34925 0-0.46567 0.11642-0.11641 0.09701-0.11641 0.44626v8.285q0 0.34925 0.11641 0.46567 0.11642 0.097 0.46567 0.097h0.98954q0.34925 0 0.44627-0.097 0.11641-0.11642 0.11641-0.46567v-1.8433h1.7851v2.0567q0 1.7268-1.8239 1.7268h-2.0567q-1.8045 0-1.8045-1.7268v-8.7313q0-1.7074 1.8045-1.7074h2.0567q1.8239 0 1.8239 1.7074z" style="font-variant-caps:normal;font-variant-east-asian:normal;font-variant-ligatures:normal;font-variant-numeric:normal;font-variant-position:normal;font-variation-settings:'wght' 700"/>
   <path d="m82.01 16.515-2.5612 6.0925 2.5418 6.0537h-1.9015l-2.4642-6.0537 2.503-6.0925zm-6.2477 12.146v-12.146h1.7462v12.146z" style="font-variant-caps:normal;font-variant-east-asian:normal;font-variant-ligatures:normal;font-variant-numeric:normal;font-variant-position:normal;font-variation-settings:'wght' 700"/>
   <path d="m84.979 27.245h3.5119v1.4164h-5.2776v-12.146h5.1418v1.4164h-3.3761v3.7447h2.794v1.4164h-2.794z" style="font-variant-caps:normal;font-variant-east-asian:normal;font-variant-ligatures:normal;font-variant-numeric:normal;font-variant-position:normal;font-variation-settings:'wght' 700"/>
   <path d="m91.615 23.753v4.9089h-1.7462v-12.146h3.9776q1.8045 0 1.8045 1.7074v3.8029q0 1.4746-1.3 1.688l1.9209 4.9477h-1.8821l-1.8239-4.9089zm0-5.8208v4.4238h1.7074q0.34925 0 0.46567-0.09701 0.11641-0.11642 0.11641-0.46567v-3.2985q0-0.34925-0.11641-0.44626-0.11642-0.11642-0.46567-0.11642z" style="font-variant-caps:normal;font-variant-east-asian:normal;font-variant-ligatures:normal;font-variant-numeric:normal;font-variant-position:normal;font-variation-settings:'wght' 700"/>
   <path d="m99.279 16.515h2.1537q1.8045 0 1.8045 1.7074v8.7313q0 1.7074-1.8045 1.7074h-2.1537q-1.8239 0-1.8239-1.7074v-8.7313q0-1.7074 1.8239-1.7074zm2.2119 10.167v-8.188q0-0.34925-0.11642-0.44626-0.11641-0.11642-0.46566-0.11642h-1.1254q-0.34925 0-0.46566 0.11642-0.097 0.09701-0.097 0.44626v8.188q0 0.34926 0.097 0.46567 0.11641 0.097 0.46566 0.097h1.1254q0.34925 0 0.46566-0.097 0.11642-0.11641 0.11642-0.46567z" style="font-variant-caps:normal;font-variant-east-asian:normal;font-variant-ligatures:normal;font-variant-numeric:normal;font-variant-position:normal;font-variation-settings:'wght' 700"/>
  </g>
  <g stroke-linejoin="round" stroke-width="1.3229">
   <path d="m26.439 22.013a10.025 10.025 0 0 0 7.3267-9.6666 10.025 10.025 0 0 0-10.031-10.014 10.025 10.025 0 0 0-8.7256 5.1087 13.736 13.736 0 0 1 11.481 13.519 13.736 13.736 0 0 1-0.0517 1.0532z" fill="#8bc34a" stroke="#8bc34a" style="paint-order:fill markers stroke"/>
   <path d="m23.793 25.982a10.025 10.025 0 0 0 9.6666 7.3267 10.025 10.025 0 0 0 10.014-10.031 10.025 10.025 0 0 0-5.1087-8.7256 13.736 13.736 0 0 1-13.519 11.481 13.736 13.736 0 0 1-1.0532-0.0517z" fill="#29b6f6" stroke="#29b6f6" style="paint-order:stroke fill markers"/>
   <path d="m19.824 23.336a10.025 10.025 0 0 0-7.3267 9.6666 10.025 10.025 0 0 0 10.031 10.014 10.025 10.025 0 0 0 8.7256-5.1088 13.736 13.736 0 0 1-11.481-13.519 13.736 13.736 0 0 1 0.0517-1.0532z" fill="#f6905e" stroke="#f6905e" style="paint-order:fill markers stroke"/>
   <path d="m22.47 19.367a10.025 10.025 0 0 0-9.6666-7.3267 10.025 10.025 0 0 0-10.014 10.031 10.025 10.025 0 0 0 5.1087 8.7256 13.736 13.736 0 0 1 13.519-11.481 13.736 13.736 0 0 1 1.0532 0.0517z" fill="#c34a8b" stroke="#c34a8b" style="paint-order:fill markers stroke"/>
  </g>
 </g>
</svg>
